<!--?xml version="1.0" standalone="no"?-->
              <svg id="sw-js-blob-svg" viewBox="0 0 100 100" xmlns="http://www.w3.org/2000/svg" version="1.1">
                    <defs> 
                        <linearGradient id="sw-gradient" x1="0" x2="1" y1="1" y2="0">
                            <stop id="stop1" stop-color="rgba(159, 255, 159, 1)" offset="0%"></stop>
                            <stop id="stop2" stop-color="rgba(100, 150, 237, 1)" offset="100%"></stop>
                        </linearGradient>
                    </defs>
                <path fill="url(#sw-gradient)" d="M10,-15.3C12.1,-16.2,12.4,-11.7,17.3,-8.3C22.2,-4.9,31.7,-2.4,32.1,0.2C32.5,2.9,23.7,5.8,19.9,11C16.1,16.3,17.2,24,14.7,29.8C12.2,35.7,6.1,39.8,1.9,36.5C-2.3,33.2,-4.5,22.5,-9,17.7C-13.4,13,-20,14.2,-20.5,12.2C-20.9,10.3,-15.1,5.1,-17.6,-1.5C-20.2,-8.1,-31,-16.1,-31.2,-19.1C-31.4,-22.1,-20.9,-20.1,-13.9,-16.4C-6.9,-12.7,-3.5,-7.4,0.2,-7.8C4,-8.2,7.9,-14.4,10,-15.3Z" width="100%" height="100%" transform="translate(50 50)" style="transition: all 0.3s ease 0s;" stroke-width="0" stroke="url(#sw-gradient)"></path>
              </svg>