<!--?xml version="1.0" standalone="no"?-->
              <svg id="sw-js-blob-svg" viewBox="0 0 100 100" xmlns="http://www.w3.org/2000/svg" version="1.1">
                    <defs> 
                        <linearGradient id="sw-gradient" x1="0" x2="1" y1="1" y2="0">
                            <stop id="stop1" stop-color="rgba(159, 255, 159, 1)" offset="0%"></stop>
                            <stop id="stop2" stop-color="rgba(100, 150, 237, 1)" offset="100%"></stop>
                        </linearGradient>
                    </defs>
                <path fill="url(#sw-gradient)" d="M14.9,-23.6C17.1,-21.7,15.2,-13.9,14.8,-8.6C14.5,-3.3,15.7,-0.4,18.4,4.9C21.1,10.2,25.4,17.9,24.6,24.5C23.8,31,18,36.3,11.1,38.9C4.1,41.5,-4,41.4,-12.2,39.8C-20.4,38.2,-28.7,35.1,-29.3,28.6C-29.9,22.1,-22.9,12.2,-23.5,3.8C-24.1,-4.7,-32.3,-11.6,-31.8,-15.4C-31.4,-19.1,-22.3,-19.8,-15.5,-19.6C-8.8,-19.5,-4.4,-18.6,1,-20.1C6.3,-21.6,12.6,-25.5,14.9,-23.6Z" width="100%" height="100%" transform="translate(50 50)" style="transition: all 0.3s ease 0s;" stroke-width="0" stroke="url(#sw-gradient)"></path>
              </svg>