<!--?xml version="1.0" standalone="no"?-->
              <svg id="sw-js-blob-svg" viewBox="0 0 100 100" xmlns="http://www.w3.org/2000/svg" version="1.1">
                    <defs> 
                        <linearGradient id="sw-gradient" x1="0" x2="1" y1="1" y2="0">
                            <stop id="stop1" stop-color="rgba(159, 255, 159, 1)" offset="0%"></stop>
                            <stop id="stop2" stop-color="rgba(100, 150, 237, 1)" offset="100%"></stop>
                        </linearGradient>
                    </defs>
                <path fill="url(#sw-gradient)" d="M23.9,-25.9C31.2,-22.4,37.5,-15.1,40.6,-5.9C43.6,3.2,43.4,14,36.8,17.4C30.3,20.7,17.4,16.5,9.3,14.7C1.3,13,-2,13.6,-9.3,15.4C-16.7,17.2,-28.2,20.1,-35.5,16.2C-42.7,12.4,-45.7,1.9,-41.8,-5.1C-37.9,-12.2,-27.1,-15.8,-18.9,-19.1C-10.8,-22.4,-5.4,-25.5,1.5,-27.3C8.3,-29,16.6,-29.4,23.9,-25.9Z" width="100%" height="100%" transform="translate(50 50)" style="transition: all 0.3s ease 0s;" stroke-width="0" stroke="url(#sw-gradient)"></path>
              </svg>