<!--?xml version="1.0" standalone="no"?-->
              <svg id="sw-js-blob-svg" viewBox="0 0 100 100" xmlns="http://www.w3.org/2000/svg" version="1.1">
                    <defs> 
                        <linearGradient id="sw-gradient" x1="0" x2="1" y1="1" y2="0">
                            <stop id="stop1" stop-color="rgba(159, 255, 159, 1)" offset="0%"></stop>
                            <stop id="stop2" stop-color="rgba(100, 150, 237, 1)" offset="100%"></stop>
                        </linearGradient>
                    </defs>
                <path fill="url(#sw-gradient)" d="M21.8,-38.9C27.6,-34.5,31.1,-27.2,33.8,-20.3C36.5,-13.3,38.5,-6.7,38.9,0.2C39.3,7.1,38.2,14.3,35.6,21.5C33,28.6,28.9,35.8,22.8,40.1C16.6,44.3,8.3,45.6,0.3,45.1C-7.7,44.6,-15.4,42.2,-21.9,38.2C-28.4,34.1,-33.7,28.3,-37.2,21.7C-40.8,15,-42.5,7.5,-42.2,0.1C-42,-7.2,-39.8,-14.5,-36.2,-20.9C-32.5,-27.4,-27.5,-33.1,-21.2,-37.2C-14.9,-41.3,-7.5,-43.8,0.3,-44.3C8,-44.8,16.1,-43.2,21.8,-38.9Z" width="100%" height="100%" transform="translate(50 50)" style="transition: all 0.3s ease 0s;" stroke-width="0" stroke="url(#sw-gradient)"></path>
              </svg>